<?xml version="1.0" standalone="no"?>
<!DOCTYPE svg PUBLIC "-//W3C//DTD SVG 20010904//EN"
 "http://www.w3.org/TR/2001/REC-SVG-20010904/DTD/svg10.dtd">
<svg version="1.0" xmlns="http://www.w3.org/2000/svg"
 width="300.000000pt" height="300.000000pt" viewBox="0 0 300.000000 300.000000"
 preserveAspectRatio="xMidYMid meet">
<metadata>
Created by potrace 1.11, written by Peter Selinger 2001-2013
</metadata>
<g transform="translate(0.000000,300.000000) scale(0.100000,-0.100000)"
fill="#000000" stroke="none">
<path d="M1249 2996 c-2 -2 -40 -6 -84 -10 -367 -30 -735 -136 -1138 -328
l-28 -13 6 -135 c6 -147 8 -173 31 -340 38 -274 170 -692 288 -910 7 -14 33
-61 56 -105 80 -150 191 -314 319 -475 72 -89 285 -311 361 -375 37 -32 138
-115 155 -128 62 -47 151 -111 199 -141 l58 -37 67 43 c36 24 68 46 69 50 2 5
8 8 13 8 6 0 36 19 67 42 418 310 730 669 955 1098 36 69 80 159 97 200 17 41
37 89 45 105 30 69 106 306 126 395 4 19 14 66 23 103 8 38 18 85 21 106 3 20
7 46 9 57 2 12 7 45 11 74 4 29 8 61 10 70 2 9 6 68 10 132 l7 115 -119 61
c-65 33 -147 72 -183 86 -36 15 -74 31 -85 36 -120 54 -474 153 -625 175 -25
3 -52 8 -60 10 -8 2 -40 7 -70 10 -30 4 -71 9 -90 11 -42 6 -516 14 -521 10z"/>
</g>
</svg>
